<svg xmlns="http://www.w3.org/2000/svg" width="613" height="93" viewBox="0 0 613 93" version="1.1">
	<path d="M 0 1.412 C 0 2.274, 1.519 3.081, 3.902 3.483 C 6.757 3.966, 7.961 4.727, 8.388 6.321 C 8.710 7.520, 8.979 20.302, 8.986 34.727 L 9 60.954 6.500 62.592 C 5.125 63.493, 4 64.628, 4 65.115 C 4 66.399, 33.948 66.202, 40.201 64.877 C 51.514 62.479, 60.907 55.019, 65.564 44.734 C 67.961 39.441, 68.383 37.218, 68.363 30 C 68.336 20.149, 66.949 16.163, 61.415 10.038 C 53.824 1.635, 46.966 -0, 19.316 -0 C 3.347 -0, 0 0.245, 0 1.412 M 79.655 1.829 C 77.424 4.294, 77.570 7.301, 80.030 9.527 C 83.214 12.408, 87.398 10.530, 87.829 6.026 C 88.347 0.610, 83.166 -2.050, 79.655 1.829 M 20.250 4.706 L 18 5.139 18 32.953 L 18 60.767 20.250 61.370 C 21.488 61.701, 25.456 61.979, 29.068 61.986 C 47.189 62.024, 57.351 52.624, 58.717 34.561 C 59.820 19.980, 53.452 8.993, 41.911 5.566 C 37.046 4.121, 25.637 3.668, 20.250 4.706 M 85 21.919 C 84.175 22.392, 80.912 23.350, 77.750 24.048 C 71.540 25.420, 69.722 28, 74.965 28 C 80.056 28, 80.360 29.797, 79.693 55.958 C 79.363 68.906, 78.604 81.174, 78.007 83.221 C 76.812 87.320, 73.769 90, 70.309 90 C 68.723 90, 68.232 90.441, 68.638 91.500 C 70.230 95.647, 80.722 90.308, 83.839 83.764 C 84.957 81.419, 86.103 77.925, 86.387 76 C 87.324 69.650, 88.143 20.999, 87.313 21.030 C 86.866 21.047, 85.825 21.447, 85 21.919 M 110.759 22.423 C 104.015 24.830, 102 26.693, 102 30.523 C 102 34.917, 103.685 34.998, 105.485 30.691 C 107.060 26.921, 110.490 25, 115.647 25 C 120.040 25, 126 30.373, 126 34.333 C 126 37.122, 126.157 37.049, 114.990 39.429 C 105.818 41.384, 101.858 43.673, 99.670 48.283 C 95.327 57.434, 99.383 65.851, 108.559 66.731 C 113.223 67.178, 113.837 66.943, 119.500 62.535 L 125.500 57.866 125.807 61.933 L 126.115 66 133.557 66 C 139.506 66, 141 65.699, 141 64.500 C 141 63.502, 140.002 63, 138.019 63 C 134.256 63, 134.139 62.484, 133.780 44.321 C 133.533 31.818, 133.255 29.809, 131.429 27.321 C 127.156 21.501, 118.855 19.534, 110.759 22.423 M 151.252 23.383 C 143.335 25.695, 141.873 27.703, 147.750 28.190 L 151.500 28.500 151.776 44.366 C 152.076 61.639, 151.719 63, 146.878 63 C 144.986 63, 144 63.514, 144 64.500 C 144 65.750, 146 66, 156 66 C 165.776 66, 168 65.733, 168 64.560 C 168 63.619, 166.703 63.013, 164.250 62.810 L 160.500 62.500 160.223 48.296 L 159.946 34.092 162.755 30.948 C 168.079 24.989, 179.144 26.106, 181.952 32.885 C 182.803 34.939, 183.080 40.540, 182.843 50.933 L 182.500 66.002 190.250 66.001 C 196.472 66, 198 65.704, 198 64.500 C 198 63.601, 197.078 63, 195.700 63 C 191.432 63, 191 61.454, 191 46.201 C 191 29.030, 189.971 25.800, 183.576 22.895 C 176.361 19.618, 170.456 20.630, 164.092 26.233 L 160.500 29.396 160.193 25.198 C 160.023 22.889, 159.573 21.060, 159.193 21.133 C 158.812 21.206, 155.239 22.218, 151.252 23.383 M 219.994 21.934 C 210.772 24.739, 205.789 30.456, 205.252 38.848 C 204.806 45.803, 207.275 50.381, 212.690 52.644 L 216.337 54.168 212.418 56.359 C 207.269 59.238, 206.430 63.452, 210.684 65.071 L 213.500 66.144 209.500 68.558 C 204.237 71.734, 203 73.586, 203 78.287 C 203 83.439, 205.401 87.285, 210.410 90.156 C 213.890 92.151, 215.842 92.494, 223.500 92.458 C 231.273 92.421, 233.207 92.048, 237.688 89.722 C 240.541 88.241, 244.141 85.370, 245.688 83.342 C 248.038 80.261, 248.500 78.684, 248.500 73.741 C 248.500 68.501, 248.180 67.552, 245.694 65.413 C 243.065 63.152, 242.133 63, 230.878 63 C 219.008 63, 215 62.152, 215 59.639 C 215 57.384, 219.521 54.001, 222.564 53.978 C 233.120 53.899, 243.348 41.705, 241.431 31.485 L 240.777 28 245.148 28 C 248.436 28, 249.828 27.504, 250.768 26 C 251.970 24.075, 251.765 23.999, 245.258 23.985 C 241.541 23.977, 236.700 23.321, 234.500 22.529 C 230.174 20.970, 223.995 20.717, 219.994 21.934 M 271.994 21.874 C 260.819 25.541, 256 32.280, 256 44.238 C 256 53.463, 258.617 59.165, 264.836 63.487 C 268.674 66.154, 269.994 66.500, 276.336 66.500 C 281.863 66.500, 284.606 65.955, 288.340 64.117 C 303.947 56.434, 305.465 31.380, 290.778 23.887 C 286.221 21.562, 276.213 20.490, 271.994 21.874 M 324.558 22.492 C 315.406 25.752, 311 31.522, 311 40.248 C 311 45.664, 311.295 46.484, 314.274 49.350 C 316.075 51.083, 318.432 52.996, 319.512 53.601 C 321.358 54.637, 321.284 54.802, 318.267 56.362 C 314.801 58.154, 312.517 61.409, 313.551 63.082 C 313.905 63.655, 315.342 64.560, 316.744 65.093 L 319.294 66.062 314.799 68.912 C 312.328 70.480, 310.011 72.528, 309.653 73.463 C 308.418 76.680, 309.011 82.505, 310.886 85.580 C 316.354 94.547, 336.286 95.370, 347.703 87.100 C 355.174 81.688, 357.042 70.951, 351.479 65.388 C 349.224 63.134, 348.414 63, 336.980 63 C 330.319 63, 323.998 62.534, 322.934 61.965 C 318.609 59.650, 322.383 54, 328.255 54 C 331.893 54, 337.839 51.496, 340.834 48.702 C 344.787 45.015, 347 39.573, 347 33.540 L 347 28 350.800 28 C 354.358 28, 357 26.636, 357 24.800 C 357 24.360, 354.188 23.993, 350.750 23.985 C 347.313 23.977, 342.700 23.321, 340.500 22.529 C 335.439 20.706, 329.610 20.692, 324.558 22.492 M 370.951 22.449 C 368.998 23.168, 365.511 24.076, 363.201 24.466 C 358.011 25.343, 357.333 28, 362.300 28 C 367.687 28, 368 28.941, 368 45.129 C 368 61.404, 367.458 63, 361.929 63 C 359.992 63, 359 63.508, 359 64.500 C 359 65.756, 361.111 66, 372 66 C 382.889 66, 385 65.756, 385 64.500 C 385 63.463, 383.958 63, 381.622 63 C 376.255 63, 375.800 61.662, 376.170 46.962 C 376.496 33.980, 376.534 33.793, 379.306 31.411 C 382.973 28.259, 386.487 28.344, 389.558 31.657 C 390.912 33.118, 392.195 34.130, 392.410 33.907 C 392.624 33.683, 392.957 30.800, 393.150 27.500 L 393.500 21.500 389.754 21.190 C 386.436 20.915, 385.395 21.459, 380.650 25.947 L 375.292 31.014 375.773 26.007 C 376.295 20.578, 376.206 20.512, 370.951 22.449 M 411.759 22.423 C 405.015 24.830, 403 26.693, 403 30.523 C 403 34.917, 404.685 34.998, 406.485 30.691 C 408.060 26.921, 411.490 25, 416.647 25 C 421.040 25, 427 30.373, 427 34.333 C 427 37.122, 427.157 37.049, 415.990 39.429 C 406.818 41.384, 402.858 43.673, 400.670 48.283 C 396.327 57.434, 400.383 65.851, 409.559 66.731 C 414.223 67.178, 414.837 66.943, 420.500 62.535 L 426.500 57.866 426.807 61.933 L 427.115 66 434.557 66 C 440.506 66, 442 65.699, 442 64.500 C 442 63.502, 441.002 63, 439.019 63 C 435.256 63, 435.139 62.484, 434.780 44.321 C 434.533 31.818, 434.255 29.809, 432.429 27.321 C 428.156 21.501, 419.855 19.534, 411.759 22.423 M 458 22.126 C 456.625 22.675, 453.363 23.584, 450.750 24.145 C 445.047 25.370, 444.121 28, 449.393 28 C 451.565 28, 453.005 28.569, 453.393 29.582 C 454.386 32.169, 454.082 57.655, 453.025 60.435 C 452.275 62.408, 451.351 63, 449.025 63 C 447.003 63, 446 63.497, 446 64.500 C 446 65.750, 448 66, 458 66 C 467.503 66, 470 65.714, 470 64.628 C 470 63.800, 468.413 63.002, 466 62.616 L 462 61.976 462 47.625 C 462 33.424, 462.028 33.245, 464.657 30.616 C 469.736 25.537, 477.732 25.873, 481.044 31.304 C 482.712 34.040, 482.993 36.379, 482.996 47.550 C 483 61.685, 482.558 63, 477.800 63 C 475.978 63, 475 63.524, 475 64.500 C 475 65.750, 477 66, 487 66 C 497 66, 499 65.750, 499 64.500 C 499 63.651, 498.104 63, 496.934 63 C 495.798 63, 493.998 62.534, 492.934 61.965 C 491.168 61.019, 491 59.752, 491 47.365 L 491 33.800 494.400 30.400 C 498.728 26.072, 504.355 25.682, 508.694 29.411 L 511.500 31.822 511.816 48.911 L 512.132 66 520.066 66 C 526.452 66, 528 65.707, 528 64.500 C 528 63.507, 527.007 63, 525.059 63 C 523.441 63, 521.754 62.438, 521.309 61.750 C 520.864 61.063, 520.275 53.150, 520 44.166 L 519.500 27.831 516.294 24.969 C 510.097 19.437, 501.769 19.811, 494.812 25.935 L 490.396 29.821 488.448 26.911 C 485.053 21.838, 477.681 19.650, 471.676 21.933 C 470.326 22.446, 467.597 24.293, 465.611 26.037 L 462 29.207 462 25.104 C 462 20.715, 461.836 20.593, 458 22.126 M 543 22.126 C 541.625 22.675, 538.362 23.584, 535.750 24.145 C 530.209 25.336, 529.325 27.712, 534.246 28.187 C 536.941 28.447, 537.599 29.009, 538.127 31.500 C 538.952 35.389, 538.960 48.848, 538.141 56.500 C 537.512 62.385, 537.438 62.506, 534.250 62.813 C 532.237 63.007, 531 63.673, 531 64.563 C 531 65.729, 533.170 66, 542.500 66 C 551.646 66, 554 65.716, 554 64.611 C 554 63.825, 552.531 62.947, 550.610 62.587 C 548.250 62.144, 547.039 61.274, 546.624 59.725 C 545.633 56.028, 545.938 38.762, 547.067 34.698 C 549.629 25.471, 563.831 24.340, 566.892 33.119 C 568.291 37.134, 568.347 58.483, 566.965 61.066 C 566.299 62.310, 564.873 63, 562.965 63 C 560.996 63, 560 63.504, 560 64.500 C 560 65.750, 562 66, 572 66 C 581.503 66, 584 65.714, 584 64.628 C 584 63.796, 582.396 62.999, 579.928 62.605 L 575.857 61.953 576.178 46.886 C 576.487 32.416, 576.594 31.743, 578.876 29.897 C 582.125 27.269, 585.597 26.547, 589.887 27.607 C 595.907 29.095, 596.997 32.641, 596.998 50.750 L 597 66 605 66 C 611.444 66, 613 65.708, 613 64.500 C 613 63.524, 612.022 63, 610.200 63 C 605.355 63, 605 61.812, 604.996 45.550 C 604.992 28.491, 604.104 25.701, 597.717 22.670 C 591.108 19.534, 584.853 20.834, 578.946 26.571 L 575.393 30.022 573.098 26.919 C 567.493 19.337, 556.899 19.101, 550.076 26.405 C 546.681 30.039, 545.713 29.659, 546.500 25 C 547.216 20.762, 546.953 20.546, 543 22.126 M 218.303 25.197 C 213.220 27.653, 211.563 37.238, 214.937 44.669 C 217.040 49.300, 219.419 51, 223.799 51 C 230.816 51, 235.142 42.929, 232.973 33.886 C 231.054 25.888, 224.683 22.114, 218.303 25.197 M 272.500 24.954 C 264.421 28.296, 261.645 42.753, 266.859 54.343 C 269.889 61.081, 273.229 63.500, 279.500 63.500 C 285.797 63.500, 289.355 60.885, 291.133 54.950 C 292.744 49.572, 291.836 37.280, 289.475 32.513 C 286.091 25.681, 278.700 22.389, 272.500 24.954 M 324.302 25.012 C 316.930 27.981, 317.468 45.671, 325.058 49.877 C 326.783 50.833, 328.833 51.066, 331.356 50.593 C 336.368 49.653, 338.991 45.398, 338.996 38.200 C 339.004 27.468, 332.562 21.686, 324.302 25.012 M 121 41.119 C 112.563 43.382, 108.925 45.244, 107.479 48.041 C 105.439 51.985, 105.628 55.257, 108.073 58.365 C 111.437 62.642, 117.222 61.813, 123.250 56.191 C 125.730 53.878, 126 52.957, 126 46.813 C 126 43.066, 125.662 40.041, 125.250 40.090 C 124.838 40.140, 122.925 40.603, 121 41.119 M 422 41.119 C 413.563 43.382, 409.925 45.244, 408.479 48.041 C 406.439 51.985, 406.628 55.257, 409.073 58.365 C 412.437 62.642, 418.222 61.813, 424.250 56.191 C 426.730 53.878, 427 52.957, 427 46.813 C 427 43.066, 426.663 40.041, 426.250 40.090 C 425.837 40.140, 423.925 40.603, 422 41.119 M 213.273 70.527 C 210.038 73.762, 209.788 74.428, 210.255 78.568 C 211.070 85.799, 216.488 90, 225 90 C 235.010 90, 243.586 81.454, 241.583 73.475 C 240.213 68.015, 237.912 67, 226.900 67 L 216.800 67 213.273 70.527 M 320.524 68.975 C 317.050 71.265, 316.167 73.108, 316.070 78.265 C 316.016 81.189, 316.739 82.836, 319.312 85.643 C 322.079 88.662, 323.459 89.338, 327.695 89.745 C 330.485 90.013, 334.406 89.691, 336.409 89.030 C 346.655 85.648, 350.881 75.024, 344.512 68.655 C 341.926 66.068, 324.583 66.299, 320.524 68.975" stroke="none" fill="#000000" fill-rule="evenodd"/>
</svg>